<svg width="1920" height="878" viewBox="0 0 1920 878" fill="none" xmlns="http://www.w3.org/2000/svg">
<path d="M602.5 143.543C490.731 143.353 526.818 381.737 369 382.043C222.123 382.327 208.511 135.511 58 189.043C34.2504 197.49 14.4313 207.821 -2 220.528V879.043H1930V4.54272C1840.5 125.284 1708.28 262.705 1549 276.043C1380.35 290.164 1346.71 27.4095 1189.5 34.0427C1015.92 41.3668 946.609 463.382 819 345.543C714.5 249.043 700.919 143.71 602.5 143.543Z" fill="url(#paint0_linear_34_56)" style="mix-blend-mode:exclusion"/>
<path d="M602.5 143.543C490.731 143.353 526.818 381.737 369 382.043C222.123 382.327 208.511 135.511 58 189.043C34.2504 197.49 14.4313 207.821 -2 220.528V879.043H1930V4.54272C1840.5 125.284 1708.28 262.705 1549 276.043C1380.35 290.164 1346.71 27.4095 1189.5 34.0427C1015.92 41.3668 946.609 463.382 819 345.543C714.5 249.043 700.919 143.71 602.5 143.543Z" stroke="#D7E82A" stroke-width="3"/>
<defs>
<linearGradient id="paint0_linear_34_56" x1="928.25" y1="4.54273" x2="928.25" y2="942.542" gradientUnits="userSpaceOnUse">
<stop offset="0.138062" stop-color="#D7E82A"/>
<stop offset="1" stop-color="white" stop-opacity="0"/>
</linearGradient>
</defs>
</svg>
