<svg width="544" height="100" viewBox="0 0 544 100" fill="none" xmlns="http://www.w3.org/2000/svg">
<path d="M62.2297 34.6018V97.3679H53.1098V88.1139C50.5169 91.6904 47.3428 94.5068 43.5876 96.5632C39.8324 98.5303 35.7195 99.5138 31.249 99.5138C25.2585 99.5138 19.8938 98.0832 15.1551 95.2221C10.4163 92.3609 6.70578 88.3822 4.02347 83.2858C1.34115 78.1894 -2.22411e-06 72.3777 -2.22411e-06 65.8507C-2.22411e-06 59.4132 1.29645 53.6909 3.88935 48.6839C6.57167 43.5875 10.2375 39.6088 14.8868 36.7476C19.6256 33.8865 24.9902 32.4559 30.9807 32.4559C35.5407 32.4559 39.6982 33.4841 43.4535 35.5406C47.2981 37.5076 50.5169 40.324 53.1098 43.9899V34.6018H62.2297ZM30.9807 91.1986C35.2724 91.1986 39.0724 90.1257 42.3806 87.9798C45.7782 85.834 48.4158 82.8387 50.2934 78.9941C52.171 75.1494 53.1098 70.813 53.1098 65.9848C53.1098 61.1567 52.171 56.8203 50.2934 52.9756C48.4158 49.131 45.7782 46.1357 42.3806 43.9899C39.0724 41.844 35.2724 40.7711 30.9807 40.7711C26.7784 40.7711 23.0232 41.844 19.715 43.9899C16.4068 46.1357 13.8139 49.131 11.9363 52.9756C10.0587 56.7309 9.11987 61.0226 9.11987 65.8507C9.11987 70.7683 10.0587 75.1494 11.9363 78.9941C13.8139 82.8387 16.4068 85.834 19.715 87.9798C23.0232 90.1257 26.7784 91.1986 30.9807 91.1986ZM109.78 97.3679L87.785 65.046L80.1404 72.4224V97.3679H71.0205V-8.51196e-05H80.1404V60.8884L107.634 34.6018H119.436L94.0885 59.0108L119.973 97.3679H109.78ZM160.147 97.3679L138.152 65.046L130.507 72.4224V97.3679H121.387V-8.51196e-05H130.507V60.8884L158.001 34.6018H169.803L144.455 59.0108L170.34 97.3679H160.147ZM203.137 32.4559C209.128 32.4559 214.448 33.8865 219.097 36.7476C223.836 39.6088 227.501 43.5875 230.094 48.6839C232.777 53.6909 234.118 59.4132 234.118 65.8507C234.118 72.3777 232.777 78.1894 230.094 83.2858C227.412 88.3822 223.702 92.3609 218.963 95.2221C214.224 98.0832 208.859 99.5138 202.869 99.5138C198.398 99.5138 194.285 98.5303 190.53 96.5632C186.775 94.5068 183.601 91.6904 181.008 88.1139V97.3679H171.888V-8.51196e-05H181.008V43.9899C183.601 40.324 186.775 37.5076 190.53 35.5406C194.375 33.4841 198.577 32.4559 203.137 32.4559ZM203.137 91.1986C207.339 91.1986 211.095 90.1257 214.403 87.9798C217.711 85.834 220.304 82.8387 222.182 78.9941C224.059 75.1494 224.998 70.7683 224.998 65.8507C224.998 61.0226 224.059 56.7309 222.182 52.9756C220.304 49.131 217.711 46.1357 214.403 43.9899C211.095 41.844 207.339 40.7711 203.137 40.7711C198.845 40.7711 195.001 41.844 191.603 43.9899C188.295 46.1357 185.702 49.131 183.824 52.9756C181.947 56.8203 181.008 61.1567 181.008 65.9848C181.008 70.813 181.947 75.1494 183.824 78.9941C185.702 82.8387 188.295 85.834 191.603 87.9798C195.001 90.1257 198.845 91.1986 203.137 91.1986Z" fill="white"/>
<path d="M243.982 98.4408C242.015 98.4408 240.316 97.7256 238.885 96.295C237.544 94.8644 236.873 93.1209 236.873 91.0645C236.873 89.0975 237.544 87.3987 238.885 85.9681C240.316 84.5375 242.015 83.8222 243.982 83.8222C246.038 83.8222 247.782 84.5375 249.212 85.9681C250.643 87.3987 251.358 89.1422 251.358 91.1986C251.358 93.1656 250.643 94.8644 249.212 96.295C247.782 97.7256 246.038 98.4408 243.982 98.4408ZM263.043 97.3679V34.6018H272.163V97.3679H263.043ZM267.603 22.3972C265.546 22.3972 263.803 21.682 262.372 20.2514C261.031 18.8208 260.36 17.0773 260.36 15.0209C260.36 13.0538 261.031 11.3997 262.372 10.0586C263.803 8.62802 265.546 7.91274 267.603 7.91274C269.57 7.91274 271.269 8.62802 272.699 10.0586C274.13 11.3997 274.845 13.0985 274.845 15.155C274.845 17.122 274.13 18.8208 272.699 20.2514C271.269 21.682 269.57 22.3972 267.603 22.3972ZM315.828 32.4559C320.209 32.4559 324.232 33.35 327.898 35.1382C331.653 36.9264 334.604 39.564 336.75 43.0511C338.985 46.5381 340.103 50.6509 340.103 55.3897V97.3679H330.983V59.4132C330.983 46.9851 325.439 40.7711 314.353 40.7711C307.915 40.7711 303.087 43.0511 299.868 47.611C296.649 52.1709 295.04 58.2955 295.04 65.9848V97.3679H285.92V34.6018H295.04V45.0628C297.186 41.0393 300.002 37.9547 303.489 35.8088C307.066 33.5735 311.178 32.4559 315.828 32.4559ZM390.545 34.6018H399.799L376.999 97.3679H366.941L344.275 34.6018H353.797L372.305 87.5775L390.545 34.6018ZM427.366 32.4559C432.999 32.4559 438.095 33.8418 442.655 36.6135C447.215 39.3852 450.792 43.1852 453.384 48.0133C455.977 52.7521 457.274 58.072 457.274 63.9731C457.274 65.6719 457.229 66.9684 457.14 67.8625H405.505C405.863 74.3 407.964 79.7988 411.809 84.3587C415.653 88.9186 420.884 91.1986 427.5 91.1986C432.865 91.1986 437.291 90.2151 440.778 88.2481C444.354 86.1916 447.215 83.3752 449.361 79.7988L456.603 84.6269C453.653 89.2763 449.763 92.9421 444.935 95.6244C440.107 98.2173 434.385 99.5138 427.768 99.5138C421.688 99.5138 416.279 98.0832 411.54 95.2221C406.802 92.3609 403.091 88.3822 400.409 83.2858C397.726 78.1894 396.385 72.4224 396.385 65.9848C396.385 59.5473 397.682 53.7803 400.275 48.6839C402.957 43.5875 406.623 39.6088 411.272 36.7476C416.011 33.8865 421.375 32.4559 427.366 32.4559ZM448.154 60.352C447.26 53.825 445.069 48.9521 441.582 45.7334C438.095 42.4252 433.356 40.7711 427.366 40.7711C421.554 40.7711 416.771 42.6487 413.016 46.4039C409.35 50.0698 407.025 54.7191 406.042 60.352H448.154ZM484.82 99.5138C478.74 99.5138 473.375 98.2173 468.726 95.6244C464.166 93.0315 460.679 89.3657 458.265 84.6269L466.446 80.6035C469.754 87.6669 476.236 91.1986 485.893 91.1986C490.542 91.1986 494.387 90.3492 497.427 88.6504C500.467 86.9516 501.987 84.314 501.987 80.7376C501.987 77.0717 500.735 74.3447 498.231 72.5565C495.817 70.7683 491.526 69.606 485.356 69.0695C476.773 68.3542 470.604 66.4319 466.848 63.3025C463.183 60.1732 461.35 56.0156 461.35 50.8298C461.35 45.0181 463.451 40.5029 467.653 37.2841C471.855 34.0653 477.622 32.4559 484.954 32.4559C497.382 32.4559 505.831 37.3735 510.302 47.2086L502.121 51.2321C500.601 47.6557 498.366 45.0181 495.415 43.3193C492.554 41.6205 488.843 40.7711 484.283 40.7711C479.634 40.7711 476.058 41.6205 473.554 43.3193C471.14 45.0181 469.933 47.4322 469.933 50.5615C469.933 53.5121 471.23 55.9262 473.822 57.8038C476.505 59.592 481.065 60.7543 487.502 61.2908C495.46 62.0061 501.361 63.9731 505.205 67.1919C509.14 70.3213 511.107 74.4788 511.107 79.6646C511.107 83.8669 509.9 87.4881 507.485 90.528C505.071 93.4786 501.853 95.7138 497.829 97.2338C493.806 98.7538 489.469 99.5138 484.82 99.5138ZM520.209 97.3679V42.9169H509.479V34.6018H520.209V13.8138H529.328V34.6018H543.813V42.9169H529.328V97.3679H520.209Z" fill="#D7E82A"/>
</svg>
