<svg width="1920" height="1080" viewBox="0 0 1920 1080" fill="none" xmlns="http://www.w3.org/2000/svg">
<path d="M1149.19 -238V-19.1684M1149.19 -19.1684V171.712M1149.19 -19.1684L1338.14 -19.1684M1149.19 -19.1684L960.235 -19.1685M1149.19 171.712V362.594M1149.19 171.712L1338.14 171.712M1149.19 171.712H960.235M1149.19 362.594V553.475M1149.19 362.594H1338.14M1149.19 362.594L960.235 362.594M1149.19 553.475V744.356M1149.19 553.475H1338.14M1149.19 553.475H960.235M1149.19 744.356V935.237M1149.19 744.356H1338.14M1149.19 744.356H960.235M1149.19 935.237V1126.12M1149.19 935.237H1338.14M1149.19 935.237H960.235M1149.19 1126.12V1314.95M1149.19 1126.12H1338.14M1149.19 1126.12L960.235 1126.12M1338.14 -238V-19.1684M1338.14 -19.1684V171.712M1338.14 -19.1684L1527.1 -19.1684M1338.14 171.712V362.594M1338.14 171.712H1527.1M1338.14 362.594V553.475M1338.14 362.594H1527.1M1338.14 553.475V744.356M1338.14 553.475H1527.1M1338.14 744.356V935.237M1338.14 744.356L1527.1 744.356M1338.14 935.237V1126.12M1338.14 935.237H1527.1M1338.14 1126.12V1314.95M1338.14 1126.12H1527.1M1527.1 -238V-19.1684M1527.1 -19.1684V171.712M1527.1 -19.1684L1716.05 -19.1684M1527.1 171.712V362.594M1527.1 171.712L1716.05 171.712M1527.1 362.594V553.475M1527.1 362.594H1716.05M1527.1 553.475V744.356M1527.1 553.475H1716.05M1527.1 744.356V935.237M1527.1 744.356H1716.05M1527.1 935.237V1126.12M1527.1 935.237H1716.05M1527.1 1126.12V1314.95M1527.1 1126.12H1716.05M1716.05 -238V-19.1684M1716.05 -19.1684L1716.05 171.712M1716.05 -19.1684L1905.01 -19.1684M1716.05 171.712V362.594M1716.05 171.712H1905.01M1716.05 362.594V553.475M1716.05 362.594L1905.01 362.594M1716.05 553.475V744.356M1716.05 553.475H1905.01M1716.05 744.356V935.237M1716.05 744.356H1905.01M1716.05 935.237V1126.12M1716.05 935.237H1905.01M1716.05 1126.12V1314.95M1716.05 1126.12L1905.01 1126.12M1905.01 -236.637V-19.1684M1905.01 -19.1684V171.712M1905.01 -19.1684L2108 -19.1684M1905.01 171.712V362.594M1905.01 171.712L2108 171.713M1905.01 362.594V553.475M1905.01 362.594H2108M1905.01 553.475V744.356M1905.01 553.475H2108M1905.01 744.356V935.237M1905.01 744.356H2108M1905.01 935.237V1126.12M1905.01 935.237H2108M1905.01 1126.12V1316.32M1905.01 1126.12H2108M2108 -19.1684V-236.636M2108 -19.1684V171.713M960.235 -19.1685L747 -19.1685M960.235 -19.1685V-238M960.235 -19.1685V171.712M2108 744.356V553.475M2108 744.356V935.237M960.235 744.356H747M960.235 744.356V553.475M960.235 744.356V935.237M2108 171.713V362.594M960.235 171.712L747 171.712M960.235 171.712V362.594M2108 935.237V1126.12M960.235 935.237H747M960.235 935.237V1126.12M2108 362.594V553.475M960.235 362.594H747M960.235 362.594V553.475M2108 1126.12V1316.32M960.235 1126.12H747M960.235 1126.12V1314.95M960.235 553.475H747M2108 1317L747 1317M770.81 -238V-19.1684M770.81 -19.1684L770.811 171.712M770.81 -19.1684L581.856 -19.1684M770.81 -19.1684L959.765 -19.1685M770.811 171.712V362.594M770.811 171.712L581.856 171.712M770.811 171.712H959.765M770.811 362.594V553.475M770.811 362.594H581.856M770.811 362.594L959.765 362.594M770.811 553.475V744.356M770.811 553.475H581.856M770.811 553.475H959.765M770.811 744.356V935.237M770.811 744.356H581.856M770.811 744.356H959.765M770.811 935.237V1126.12M770.811 935.237H581.856M770.811 935.237H959.765M770.811 1126.12V1314.95M770.811 1126.12H581.856M770.811 1126.12L959.765 1126.12M581.856 -238V-19.1684M581.856 -19.1684V171.712M581.856 -19.1684L392.901 -19.1684M581.856 171.712V362.594M581.856 171.712H392.901M581.856 362.594L581.856 553.475M581.856 362.594H392.901M581.856 553.475V744.356M581.856 553.475H392.901M581.856 744.356V935.237M581.856 744.356L392.901 744.356M581.856 935.237V1126.12M581.856 935.237H392.901M581.856 1126.12V1314.95M581.856 1126.12H392.901M392.901 -238V-19.1684M392.901 -19.1684V171.712M392.901 -19.1684L203.947 -19.1684M392.901 171.712V362.594M392.901 171.712L203.947 171.712M392.901 362.594V553.475M392.901 362.594H203.947M392.901 553.475V744.356M392.901 553.475H203.947M392.901 744.356V935.237M392.901 744.356H203.947M392.901 935.237V1126.12M392.901 935.237H203.947M392.901 1126.12V1314.95M392.901 1126.12H203.947M203.947 -238V-19.1684M203.947 -19.1684L203.947 171.712M203.947 -19.1684L14.9921 -19.1684M203.947 171.712V362.594M203.947 171.712H14.9921M203.947 362.594V553.475M203.947 362.594L14.9921 362.594M203.947 553.475V744.356M203.947 553.475H14.9922M203.947 744.356L203.947 935.237M203.947 744.356H14.9922M203.947 935.237V1126.12M203.947 935.237H14.9922M203.947 1126.12V1314.95M203.947 1126.12L14.9922 1126.12M14.9921 -236.637V-19.1684M14.9921 -19.1684V171.712M14.9921 -19.1684L-188 -19.1684M14.9921 171.712V362.594M14.9921 171.712L-188 171.713M14.9921 362.594L14.9922 553.475M14.9921 362.594H-188M14.9922 553.475V744.356M14.9922 553.475H-188M14.9922 744.356V935.237M14.9922 744.356H-188M14.9922 935.237V1126.12M14.9922 935.237H-188M14.9922 1126.12V1316.32M14.9922 1126.12H-188M-188 -19.1684L-188 -236.636M-188 -19.1684V171.713M959.765 -19.1685L1173 -19.1685M959.765 -19.1685V-238M959.765 -19.1685V171.712M-188 744.356V553.475M-188 744.356V935.237M959.765 744.356H1173M959.765 744.356V553.475M959.765 744.356V935.237M-188 171.713V362.594M959.765 171.712L1173 171.712M959.765 171.712V362.594M-188 935.237V1126.12M959.765 935.237H1173M959.765 935.237V1126.12M-188 362.594V553.475M959.765 362.594H1173M959.765 362.594V553.475M-188 1126.12V1316.32M959.765 1126.12H1173M959.765 1126.12V1314.95M959.765 553.475H1173M-188 1317L1173 1317" stroke="#3D3D3D"/>
</svg>
